Coordinates
datacolumns 11
datarows 48
range 0 0.47
inDegrees=yes
Units are S.I. units (second, meters, Newtons, ...)
If the header above contains a line with 'inDegrees', this indicates whether rotational values are in degrees (yes) or radians (no).
endheader
time	pelvis_tilt	pelvis_tx	pelvis_ty	hip_flexion_l	hip_flexion_r	knee_angle_l	knee_angle_r	ankle_angle_l	ankle_angle_r	lumbar
0	21.1515537	-0.04856877	0.7293319	53.87579656	53.87579656	-79.60897568	-79.60897568	4.18802028	4.18802028	-36.79745534
0.01	21.13045775	-0.04859107	0.72931437	53.89483602	53.89483602	-79.59927111	-79.59927111	4.18931788	4.18931788	-36.84200754
0.02	21.1039466	-0.04860422	0.72929061	53.91748258	53.91748258	-79.58493005	-79.58493005	4.19366096	4.19366096	-36.89062432
0.03	21.07427188	-0.04860034	0.72928041	53.93915488	53.93915488	-79.57136199	-79.57136199	4.19982277	4.19982277	-36.93939289
0.04	21.03907584	-0.04859898	0.72927043	53.96558915	53.96558915	-79.55244108	-79.55244108	4.21258759	4.21258759	-36.98984305
0.05	21.00138188	-0.04857058	0.72926647	53.99253453	53.99253453	-79.53689832	-79.53689832	4.22765267	4.22765267	-37.04576581
0.06	20.90726926	-0.04845211	0.72914007	54.08294096	54.08294096	-79.53946652	-79.53946652	4.43429813	4.43429813	-37.03373179
0.07	20.87085164	-0.04840352	0.72915707	54.10777797	54.10777797	-79.52905802	-79.52905802	4.44005023	4.44005023	-37.10887118
0.08	20.8291064	-0.0483483	0.72918321	54.13517157	54.13517157	-79.51558254	-79.51558254	4.45000829	4.45000829	-37.18835964
0.09	20.78218623	-0.04828256	0.7292156	54.16570946	54.16570946	-79.50050385	-79.50050385	4.46426441	4.46426441	-37.27233133
0.1	20.72976456	-0.04820454	0.72925251	54.19997219	54.19997219	-79.48436608	-79.48436608	4.48289547	4.48289547	-37.36063979
0.11	20.60752531	-0.04800153	0.72912339	54.31560101	54.31560101	-79.49814449	-79.49814449	4.79495726	4.79495726	-37.36330371
0.12	20.55054477	-0.04789628	0.7291815	54.35030932	54.35030932	-79.48183955	-79.48183955	4.80021239	4.80021239	-37.46720566
0.13	20.48618741	-0.047773	0.72924249	54.39048157	54.39048157	-79.46221423	-79.46221423	4.809588	4.809588	-37.57512116
0.14	20.41387087	-0.04763152	0.72930483	54.43649981	54.43649981	-79.44007068	-79.44007068	4.82335673	4.82335673	-37.68578799
0.15	20.20836518	-0.0473428	0.72907378	54.63845058	54.63845058	-79.44080334	-79.44080334	5.03131958	5.03131958	-37.63640433
0.16	20.13456328	-0.04715607	0.72915661	54.68448813	54.68448813	-79.42423094	-79.42423094	5.03866123	5.03866123	-37.76736316
0.17	20.04986673	-0.046955	0.72923695	54.73848566	54.73848566	-79.40169442	-79.40169442	5.0508769	5.0508769	-37.90047549
0.18	19.95417816	-0.04673377	0.72931147	54.80172869	54.80172869	-79.3761663	-79.3761663	5.06843497	5.06843497	-38.03471649
0.19	19.65124994	-0.04629919	0.72890881	55.11593036	55.11593036	-79.39345609	-79.39345609	5.29384311	5.29384311	-37.9113623
0.2	19.55932411	-0.04603618	0.72900926	55.17459844	55.17459844	-79.37558517	-79.37558517	5.30209507	5.30209507	-38.07497184
0.21	19.45479043	-0.04575685	0.72910078	55.24345687	55.24345687	-79.35253391	-79.35253391	5.31491166	5.31491166	-38.24001827
0.22	19.33762679	-0.04545709	0.7291803	55.32415655	55.32415655	-79.32699875	-79.32699875	5.33228384	5.33228384	-38.40643629
0.23	18.96324287	-0.04490809	0.72866664	55.72059564	55.72059564	-79.35402892	-79.35402892	5.5235465	5.5235465	-38.24970651
0.24	18.85117823	-0.04457553	0.7287693	55.79482575	55.79482575	-79.33365772	-79.33365772	5.53145058	5.53145058	-38.45365927
0.25	18.72520859	-0.04421547	0.72886831	55.88039617	55.88039617	-79.3077421	-79.3077421	5.54267803	5.54267803	-38.65668893
0.26	18.35912383	-0.04365595	0.72841966	56.25982526	56.25982526	-79.32099088	-79.32099088	5.6460243	5.6460243	-38.56603985
0.27	18.23090507	-0.04325757	0.72853471	56.3453986	56.3453986	-79.29654784	-79.29654784	5.65329252	5.65329252	-38.80068039
0.28	18.08764593	-0.04284001	0.72864461	56.44370711	56.44370711	-79.26618196	-79.26618196	5.66294459	5.66294459	-39.03489449
0.29	17.67767112	-0.0422316	0.72814822	56.8666542	56.8666542	-79.27034376	-79.27034376	5.72082727	5.72082727	-38.9463671
0.3	17.53267703	-0.04177685	0.72827416	56.96533395	56.96533395	-79.24339242	-79.24339242	5.72790706	5.72790706	-39.21558024
0.31	17.37039937	-0.04130255	0.72839577	57.07685513	57.07685513	-79.20896821	-79.20896821	5.73702719	5.73702719	-39.4806663
0.32	16.90783114	-0.04064127	0.72782352	57.55514862	57.55514862	-79.20912451	-79.20912451	5.77212975	5.77212975	-39.3900399
0.33	16.74365662	-0.04012899	0.7279575	57.66719421	57.66719421	-79.17864574	-79.17864574	5.77977291	5.77977291	-39.69648866
0.34	16.560524	-0.0395878	0.72808807	57.79229336	57.79229336	-79.14036256	-79.14036256	5.78963324	5.78963324	-39.99646928
0.35	16.05250583	-0.03885014	0.72746757	58.31278887	58.31278887	-79.13751221	-79.13751221	5.82618099	5.82618099	-39.91024925
0.36	15.86901497	-0.03825235	0.72762509	58.43502157	58.43502157	-79.10554469	-79.10554469	5.8347234	5.8347234	-40.24847812
0.37	15.66637623	-0.03762784	0.72777636	58.57198466	58.57198466	-79.06541732	-79.06541732	5.84591249	5.84591249	-40.5851014
0.38	15.4410042	-0.03694112	0.72791024	58.72670821	58.72670821	-79.01967473	-79.01967473	5.86023826	5.86023826	-40.91254371
0.39	14.79774955	-0.03601784	0.72704779	59.39334326	59.39334326	-79.02692889	-79.02692889	5.93412087	5.93412087	-40.73727363
0.4	14.58921104	-0.03529145	0.72724584	59.53007544	59.53007544	-78.99562998	-78.99562998	5.94333618	5.94333618	-41.12399646
0.41	14.35976384	-0.03452109	0.7274435	59.68064271	59.68064271	-78.95345996	-78.95345996	5.95577911	5.95577911	-41.50656523
0.42	14.10363622	-0.03368672	0.72762478	59.85092985	59.85092985	-78.90212047	-78.90212047	5.97239736	5.97239736	-41.87602576
0.43	13.38860436	-0.03262873	0.72670566	60.58182707	60.58182707	-78.90288929	-78.90288929	6.06421747	6.06421747	-41.6962594
0.44	13.15038904	-0.03174571	0.72694485	60.73428027	60.73428027	-78.8686877	-78.8686877	6.07477442	6.07477442	-42.12860789
0.45	12.8806217	-0.03081199	0.72716743	60.9082668	60.9082668	-78.81758348	-78.81758348	6.09018762	6.09018762	-42.54558557
0.46	12.15217096	-0.02966996	0.7263068	61.63305442	61.63305442	-78.80246149	-78.80246149	6.17368036	6.17368036	-42.41646222
0.47	11.88931837	-0.028658	0.72656865	61.79804422	61.79804422	-78.76624863	-78.76624863	6.18522144	6.18522144	-42.8813215
